<?xml version="1.0" encoding="utf-8"?>
<!-- Generator: Adobe Illustrator 27.1.1, SVG Export Plug-In . SVG Version: 6.00 Build 0)  -->
<svg version="1.1" id="Layer_1" xmlns="http://www.w3.org/2000/svg" xmlns:xlink="http://www.w3.org/1999/xlink" x="0px" y="0px"
	 viewBox="0 0 1080 1080" style="enable-background:new 0 0 1080 1080;" xml:space="preserve">
<style type="text/css">
	.st0{fill:#497039;}
	.st1{fill:none;}
	.st2{fill:#8B431F;}
</style>
<g>
	<g>
		<path class="st0" d="M773.31,190.97c-10.46,15.55-18.22,27.08-25.98,38.62c1.3,1.02,2.61,2.04,3.91,3.06
			c6.37-5.54,12.63-11.2,19.13-16.59c29.59-24.58,71.44-14.88,88.75,20.04c4.33,8.73,11.29,16.15,15.73,24.85
			c1.62,3.18-0.56,8.3-1.27,15.05c2.81,5.38,8.27,13.51,11.16,22.48c1.21,3.73-1.93,10.21-5.03,13.74
			c-8.38,9.54-33.84,8.4-45.8-1.25c-16.86,14.21-96.14,4.26-123.71-16.13c0,4.29,0,7.87,0,13.31c-31.78-0.94-64.99,8.88-92.07-19.62
			c17.01-31.8,35.19-61.59,69.53-79.48c0.37,5.84,0.63,10.01,1.13,18.14C708.88,191.66,740.9,196.06,773.31,190.97z"/>
		<path class="st0" d="M454.4,191.94c-12.44-6.57-27.51-11.34-38.31-20.92c-19.42-17.22-35.94-37.68-54.4-56.05
			c-6.31-6.28-15.65-9.49-22.06-15.7c-7.47-7.24-13.37-16.36-7.3-27.62c5.11-9.5,16.18-12.66,26.07-10.54
			c6.91-6.49,10.58-12.64,15.64-14.15c11.31-3.37,23.42-6.53,35-5.91c14.51,0.77,29.26,4.08,43.1,8.72
			c16.1,5.4,21.22,19.63,22.42,35.56c0.67,8.89,1.85,17.74,2.79,26.61c1.8,0.15,3.6,0.3,5.4,0.45c2.35-11.87,4.71-23.73,7.65-38.54
			c19.83,23.46,40.5,43.8,37.53,77.68c0.92-0.11,2.68-0.03,4.21-0.58c1.78-0.63,3.36-1.82,5.84-3.23
			c9.79,34.14,4.04,66.2-7.19,97.54c-1.23,3.45-11.26,7.48-14.44,5.84c-13.9-7.17-27.24-15.71-39.85-25.02
			c-6.91-5.1-12.61-12.25-17.59-19.37C456.07,202.66,455.79,196.82,454.4,191.94z"/>
		<path class="st0" d="M367.38,229.97c-7.97-11.86-15.94-23.73-26.3-39.15c33.07,6.04,66.87-0.42,85.15,39.58
			c0-9.42,0-14.59,0-19.76c1.11-1.08,2.23-2.17,3.34-3.25c12.76,12.02,26.09,23.5,38.07,36.26c7.31,7.79,12.93,17.29,18.59,26.47
			c12.11,19.62,8.06,31-15.37,35.01c-21.46,3.68-43.63,3.2-66.12,4.6c0-6.69,0-10.07,0-14.04c-1.92,0.34-3.42,0.26-4.58,0.86
			c-10.65,5.49-20.78,14.45-31.94,16c-27.04,3.74-54.56,4.04-83.15,5.81c1.15-5.95,1.84-9.53,2.18-11.25
			c-9.04,4.27-17.91,11.34-27.27,12.06c-8.68,0.66-19.69-3.34-26.4-9.11c-9.49-8.16-3.81-23.26,11.16-34.54
			c-13.88-8.18-4.19-16.18,0.34-23.99c3.39-5.84,8.07-10.94,11.27-16.86c18.54-34.3,58.25-42.78,88.05-18.52
			c6.59,5.37,12.94,11.04,19.4,16.58C364.99,231.79,366.18,230.88,367.38,229.97z"/>
		<path class="st0" d="M703.89,148.97c5.01,2.63,7.75,4.07,12.21,6.41c-17.67,16.51-33.07,35.45-63.6,32.41
			c4.24,5.05,6.76,8.05,11.31,13.48c-16.44,14.79-31.63,31-49.33,43.7c-19.94,14.3-28.97,9.83-35.36-13.58
			c-7.53-27.6-12.04-55.31-1.89-85.13c5.18,5.81,9.58,10.75,13.98,15.69c-17.99-39.57,13.47-59.81,32.15-89.67
			c3.59,17.19,6.26,29.99,8.93,42.8c1.48-0.07,2.97-0.15,4.45-0.22c1.94-14.67,2.69-29.63,6.12-43.94
			c4.32-18.02,20.36-23.73,35.93-27.67c14.19-3.59,29.45-8.24,38.41,1.34c13.04,2.15,22.45,3.1,31.39,5.68
			c1.85,0.54,1.95,7.15,2.49,9.42c7.87,1.55,16.89,1.37,23.75,5.14c10.22,5.62,13.99,15.83,6.03,26.07
			c-6.78,8.73-9.68,21.31-25.05,22.61c-5.01,0.42-8.52,12.24-13.74,17.89C726.25,148.5,726.06,148.32,703.89,148.97z"/>
	</g>
	<path class="st1" d="M610.94,722.59c-5.2-20.06-11.58-39.79-18.97-59.2c-7.38-19.36-15.64-38.38-23.58-57.53
		c-1.68-4.06-3.69-7.98-5.54-11.96c-0.33,0.05-0.66,0.1-0.99,0.14c-1.33,9.25-2.9,18.47-3.95,27.75
		c-1.57,13.95-3.06,27.92-4.07,41.92c-1.04,14.41-1.46,28.87-2.14,43.31c-0.09,1.82-0.23,3.65-0.22,5.47
		c0.03,3.66-0.43,7.36,0.69,11.12c2.73-2.13,5.1-4.18,7.67-5.94c7.95-5.41,16.6-7.32,26.08-4.96c2.92,0.73,5.23,1.9,6.33,4.97
		c1.05,2.94,2.66,5.7,3.54,8.68c3.89,13.05,1.14,24.5-8.7,34.08c-0.52,0.51-1.15,0.9-1.83,1.42c-0.47-0.67-0.76-1.09-1.05-1.51
		c-6.12-8.97-14.13-9.85-22.04-2.35c-2.27,2.16-4.32,4.55-6.57,6.72c-1.5,1.44-1.72,3.07-1.44,5c0.7,4.76,1.27,9.54,1.99,14.3
		c2.7,17.83,6.69,35.34,13.46,52.12c6.11,15.14,14.04,29.14,26.08,40.46c3.4,3.2,6.85,6.37,11.27,8.65
		C621.04,838.23,625.56,785.81,610.94,722.59z"/>
	<path class="st2" d="M291.35,729.76c6.42-23.39,15.78-48.04,27.95-73.9c-2.87,5.37-5.74,10.78-8.6,16.23
		C302.4,692.06,295.98,711.27,291.35,729.76z"/>
	<path class="st2" d="M291.23,730.23c-0.42,1.68-0.88,3.38-1.27,5.05C290.4,733.59,290.77,731.93,291.23,730.23z"/>
	<path class="st2" d="M543.87,316.03c-0.18,0.48-0.35,0.95-0.54,1.43l0.5-0.7C543.84,316.75,543.85,316.49,543.87,316.03z"/>
	<path class="st2" d="M291.35,729.76c-0.04,0.16-0.08,0.31-0.12,0.46C291.27,730.07,291.31,729.92,291.35,729.76z"/>
	<path class="st2" d="M548.69,301.88v-0.07C548.69,301.84,548.69,301.86,548.69,301.88C548.69,301.89,548.69,301.88,548.69,301.88z"
		/>
	<path class="st2" d="M319.3,655.86c22.29-41.67,44.93-80.63,68.07-115.72c-1.21,1.68-2.46,3.34-3.67,5.02
		C357.03,584.3,335.62,621.17,319.3,655.86z"/>
	<path class="st2" d="M304.69,878.28c1.91,3.38,3.89,6.64,6,9.65C308.56,884.77,306.58,881.54,304.69,878.28z"/>
	<path class="st2" d="M511.72,312.31"/>
	<g>
		<path class="st2" d="M320.41,1007.26c-3.42-7.04-6.93-13.82-10.01-20.79c-1.38-3.12-2.99-3.55-6-2.5
			c-6.91,2.4-13.96,4.39-20.88,6.76c-2.81,0.96-4.4,0.57-5.75-2.3c-3.12-6.62-6.46-13.14-9.93-19.58c-1.86-3.46-1.68-5.74,2.42-7.03
			c8.83-2.79,17.64-5.66,26.44-8.53c3.06-0.99,5.12,0.38,6.48,2.87c2.49,4.56,4.91,9.17,7.08,13.89c0.93,2.02,1.16,4.35,1.75,6.68
			c8.58-2.85,15.86-5.08,23-7.71c5.13-1.89,8.56-0.32,10.78,4.34c3.07,6.45,6.11,12.92,8.83,19.52c0.41,1.01-0.67,3.7-1.6,4.01
			C342.4,1000.46,331.68,1003.73,320.41,1007.26z"/>
	</g>
	<g>
		<path class="st2" d="M604.99,945.78c2.05,1.49,4.14,2.99,6.35,4.52c18.89,14.16,35.27,19.49,49.26,16.46
			c8.23-1.62,15.65-6.14,22.22-13.6c1.36-1.58,2.86-3.11,3.88-4.9c0.26-0.43,0.51-0.81,0.77-1.24c2.69-3.8,5.2-8.06,7.59-12.84
			c0.94-1.75,1.79-3.5,2.56-5.33c0.21-0.51,0.43-1.07,0.64-1.58c0.09-0.26,0.21-0.47,0.3-0.68c4.1-10.07,7.72-20.35,11.3-30.59
			c4.62-13.19,7.43-26.96,8.15-40.91c1.27-24.8-1.63-49.22-7.38-73.25c-1.45-6.06-3.24-12.03-4.9-18.25
			c0.73-0.68,1.54-1.32,2.26-2.09c23.2-23.54,40.77-50.67,50.97-82.4c4.18-13.09,6.27-26.83,6.06-40.56
			c-0.09-6.1-0.81-12.11-3.45-17.7c-2.94-6.27-7.85-9.55-14.84-9.6c-5.12,0-9.89,1.45-14.54,3.41c-7.42,3.07-14.24,7.38-20.68,12.16
			c-1.15,0.81-2.3,1.62-4.05,2.81c0.34-1.35,0.45-2.11,0.64-2.86c1.57-6.34,2.77-12.78,2.92-19.31c0-0.01,0-0.01,0-0.02l0.02,0.03
			c0.46-8.52-0.47-17.7-2.48-27.38c-0.01-0.05-0.02-0.1-0.03-0.16c-4.72-22.61-15.41-48.02-28.83-74.73
			c-20.88-41.57-48.29-86.17-69.66-127.96l4.15,114.82c0.86-0.63,1.34-1.64,1.34-2.69v-55.69l84.09,151.54c0,0,0,0,0,0l1.63,3.18
			c5.55,13.57-3.56,35.25-12.94,57.09c-1.89,3.93-4.27,7.6-6.76,11.2c-1.07,1.56-1.89,3.59-2.07,5.52
			c-0.6,7.17-0.94,14.33-1.41,21.5c-0.13,2.47-0.3,4.95-0.43,7.55c1.45,0.43,2.73,0.6,3.92,1.11c2.09,0.94,3.45-0.09,4.78-1.49
			c9.55-10.45,20.13-19.79,31.69-27.89c5.29-3.67,10.79-6.91,16.97-8.87c3.16-1.02,6.35-1.62,9.64-1.07c5.29,0.9,6.82,3.5,4.31,8.15
			c-2.94,5.33-6.14,10.62-9.77,15.57c-15.48,21.24-32.71,41.11-50.62,60.31c-1.07,1.11-2.22,2.13-3.45,3.33
			c-6.74-4.86-13.82-8.44-21.67-10.28c-7.85-1.79-15.74-2.39-24.05-1.07c-1.02,3.71-2.18,7.46-3.11,11.22
			c-2.94,11.43-5.42,22.9-5.12,34.8c0.13,5.01,0.94,9.93,3.44,14.42c2.69,4.84,7.87,7.63,13.41,7.76c2.63,0.06,5.3-0.11,7.85-0.61
			c8.57-1.58,16.25-5.54,23.76-9.85c1.19-0.68,2.43-1.41,3.45-2.05c5.03,2.47,9,5.63,12.2,9.68c9.17,11.77,12.84,25.46,11.6,40.05
			c-0.9,10.36-3.11,20.68-5.25,30.88c-2.6,12.45-6.53,24.48-12.62,35.7c-3.54,6.48-7.8,12.37-13.6,17.06
			c-8.32,6.78-17.78,9-28.28,7.29c-12.03-2-22.09-8.32-32.07-14.76c0.21-1.36,0.34-2.52,0.55-3.67c0.62-3.05,1.2-6.1,1.76-9.16l0,0
			c14.61-61.82,11.75-122.45-1.03-182.42c-3.53-18.07-8.08-35.84-13.79-53.28c-0.07-0.25-0.14-0.5-0.22-0.74h-0.03
			c-3.39-10.3-7.16-20.5-11.39-30.56c-2.47-5.89-6.01-11.3-8.27-17.23c-4.99-13.18-9.85-26.44-14.12-39.88
			c-9.13-28.87-17.87-57.87-26.74-86.83c-0.55-1.71-1.19-3.41-1.75-5.12c-0.94,1.15-1.28,2.22-1.49,3.33
			c-1.83,9.3-2,18.72-1.92,28.11c0.21,21.2,0.77,42.35,1.19,63.5c0.08,3.16,0.21,6.27,0.43,9.38c0.81,13.6,0.04,27.25-1.75,40.64
			c-2.6,19.28-5.8,38.47-7.51,57.87c-2.09,24.14-2.77,48.28-1.66,72.46c0.04,1.71-0.34,3.41-1.11,4.9
			c-7.55,14.59-13.22,29.85-17.7,45.63c-1.49,5.37-2.64,10.83-3.41,16.33c-1.49,10.83-2.56,21.75-4.18,32.58
			c-3.03,20.17-7.42,40.05-14.07,59.37c-4.86,14.16-10.88,27.72-19.79,39.88c-4.82,6.57-10.36,12.41-17.27,16.93
			c-9.8,6.39-20.7,8.99-33.01,6.19c-2.26-0.51-4.41-1.52-6.25-2.93c-6.03-4.65-10.64-10.59-14.7-17.25
			c0.81-0.55,1.32-0.94,1.88-1.24c14.16-7.89,25.72-18.72,35.57-31.43c13.39-17.27,22.9-36.64,30.54-56.98
			c8.91-23.71,14.8-48.45,18.98-73.44c2.13-12.71,3.54-25.46,1.75-38.38c-1.11-7.98-3.07-15.65-7.21-22.6
			c-5.67-9.43-13.82-15.23-24.82-17.02c-2.52-0.38-5.08-0.09-7.46,0.81c-8.32,3.16-16.93,5.2-25.8,6.31
			c-11.39,1.45-21.58-1.66-31.09-7.8c-3.03-1.92-5.29-4.86-6.44-8.27c-1.07-3.07-1.96-6.27-2.3-9.47
			c-0.85-8.4,0.55-16.68,2.77-24.78c5.16-19.15,13.31-37.06,23.24-54.16c3.75-6.48,8.4-12.45,14.16-17.27
			c2.47-2.09,5.08-4.01,7.89-5.59c6.65-3.8,14.59-4.09,21.58-0.9c4.95,2.22,9,5.63,12.5,9.64c2.42,2.72,3.41,3.03,6.7,1.76
			c2.47-0.95,4.6-2.71,5.89-5.02c1.19-2.13,2.21-4.42,2.93-6.76c2.39-7.98,1.75-16.38,2.69-24.52c0-0.9-7.59-8.15-11.05-10.41
			c-12.45-8.23-25.03-7.98-37.32,0.51c-5.46,3.75-10.02,8.4-14.16,13.48c-8.36,10.15-14.8,21.5-20.47,33.31
			c-13.09,27.17-22.26,55.7-29.81,84.83c-3.45,13.26-3.03,26.49,0.09,39.58c3.97,16.89,13.9,28.57,31.13,32.8
			c15.48,3.79,30.7,1.79,45.5-3.92c1.09-0.42,2.94-0.94,4.12-0.98c9.26-0.31,19.05,5.96,22.46,14.67c1.83,4.61,2.3,9.25,0.81,14.16
			c-7.12,23.54-15.35,46.66-27.25,68.28c-7.42,13.56-16.08,26.27-27.21,37.19c-8.44,8.36-18,15.1-29.09,19.49
			c-1.41,0.55-2.9,0.9-4.69,1.41c-2.26-25.72,1.36-50.37,7.89-75.19c-4.86,1.71-5.46,5.2-7.34,8.36c-0.55,0.94-1.02,1.88-1.32,2.86
			c-1.62,5.67-3.16,11.43-4.14,17.27c-2.43,14.71-2.64,29.64-2.69,44.53v3.8c-0.64,0.3-0.98,0.47-1.36,0.6
			c-0.47,0.17-0.98,0.3-1.49,0.34c-5.35,0.63-10.59,0.7-15.74,0.21c-15.66-2.78-28.49-10.51-39.03-22.23
			c-2.4-2.8-4.7-5.66-6.87-8.58c-2.12-3.01-4.1-6.27-6-9.65c-7.81-13.87-13.89-30.77-18.56-50.13c-5.4-28.27-3.97-59.29,3.83-92.87
			c0.39-1.67,0.85-3.37,1.27-5.05c0.04-0.16,0.08-0.31,0.12-0.46c4.63-18.49,11.05-37.7,19.35-57.67c2.86-5.45,5.73-10.86,8.6-16.23
			c16.32-34.69,37.73-71.56,64.4-110.69c1.21-1.68,2.45-3.34,3.67-5.02c21.13-32.04,42.67-60.86,64.76-85.47
			c16-19.25,31.1-38.27,44.56-56.87c7.88-10.88,15.12-21.6,21.69-32.15l-0.04,0.13c0.16-0.28,0.33-0.56,0.49-0.84
			c0.77-1.25,1.58-2.5,2.33-3.74c2.44-4.02,4.74-8.01,6.95-11.97c2.4-4.01,4.75-7.95,6.97-11.78l3.91,63.6
			c0.08,1.28,0.88,2.41,2.06,2.9c2.18,0.91,7.22-93.07,7.22-93.07v0v0l0.43-15.06V262.8c0.52-4.92-2.93-3.99-4.87-3.04l-1.73,1.66
			c-1.4,1.1-2.77,2.4-4.13,3.87c-1.38,1.33-2.93,3.28-4.58,5.65c-3.38,4.71-6.66,10.35-9.87,16.55c-3.68,6.8-6.41,12.41-6.41,12.41
			c0,0.01-0.01,0.02-0.01,0.03c-36.54,89.13-122.21,186.13-122.22,186.13c0,0,0,0,0,0c-2.68,3.36-5.05,6.31-7.03,8.76
			c-2.08,2.51-4.15,5.05-6.21,7.62c-0.4,0.48-0.67,0.81-0.67,0.81v0.02c-39.02,49.05-73.15,109.98-95.6,171.47
			c-1.15,2.74-2.33,5.46-3.44,8.22c-5.93,14.63-11.51,29.3-13.48,45.25c-0.15,1.23-0.29,2.45-0.43,3.68
			c-23.78,99.45-10.55,190.9,69.56,224.55c0.87,0.38,1.79,0.7,2.68,1.05c1.44,0.57,2.85,1.16,4.33,1.69l0.03-0.12
			c4.46,1.54,9.03,2.9,13.87,3.88c6.48,1.28,13.14,1.66,20.13,2.52c0.21,0.72,0.55,1.79,0.94,2.9c2.05,6.06,3.88,12.2,6.27,18.13
			c4.18,10.41,9.68,20.09,18.08,27.93c10.83,10.11,26.53,13.09,40.73,8.79c15.14-4.65,26.31-14.29,34.46-27.68
			c6.44-10.58,11.05-21.92,14.8-33.65c10.45-32.5,15.4-66.06,18.77-99.88c0.73-7.17,1.07-14.37,1.96-21.49
			c1.75-14.24,7.46-27.08,14.97-39.19c0.26-0.47,0.77-0.81,1.36-1.41c1.79,9.77,3.33,19.11,5.33,28.4
			c4.05,19.15,9.51,37.83,17.06,55.83c4.26,13.43,12.2,27.81,31.47,45.29c0,0.02,0.01,0.04,0.01,0.06
			c-14.33,29.27-32.76,55.59-56.52,77.98c-18.21,17.15-38.77,30.49-62.82,38c-0.6,0.17-1.15,0.43-2.26,0.9
			c1.45,0.34,2.3,0.68,3.16,0.77c6.01,0.43,11.98,1.07,18,1.19c16.42,0.43,31.77-3.62,46.1-11.73c15.35-8.74,27.85-20.68,38.9-34.25
			c13.31-16.25,24.01-34.2,33.52-52.84C603.54,948.3,604.22,947.15,604.99,945.78z M569.62,836.14
			c-6.77-16.78-10.75-34.29-13.46-52.12c-0.72-4.76-1.29-9.54-1.99-14.3c-0.28-1.92-0.06-3.55,1.44-5c2.26-2.17,4.3-4.56,6.57-6.72
			c7.9-7.5,15.92-6.62,22.04,2.35c0.29,0.42,0.58,0.83,1.05,1.51c0.68-0.52,1.31-0.91,1.83-1.42c9.84-9.58,12.59-21.03,8.7-34.08
			c-0.89-2.98-2.49-5.74-3.54-8.68c-1.09-3.07-3.41-4.24-6.33-4.97c-9.48-2.37-18.13-0.46-26.08,4.96
			c-2.57,1.75-4.94,3.81-7.67,5.94c-1.12-3.75-0.66-7.46-0.69-11.12c-0.01-1.82,0.13-3.65,0.22-5.47
			c0.69-14.44,1.11-28.9,2.14-43.31c1.01-14,2.5-27.97,4.07-41.92c1.05-9.28,2.61-18.5,3.95-27.75c0.33-0.05,0.66-0.1,0.99-0.14
			c1.86,3.98,3.86,7.9,5.54,11.96c7.9,19.04,16.11,37.96,23.45,57.21c0.07,0.17,0.13,0.34,0.2,0.52c3.14,8.25,6.06,16.58,8.82,24.95
			c19.04,62.07,18.88,128.09,6.11,196.72c0,0,0,0,0,0c-4.42-2.29-7.87-5.45-11.27-8.65C583.66,865.28,575.73,851.28,569.62,836.14z"
			/>
		<path class="st2" d="M618.13,321.87L618.13,321.87c-25.67-30.18-45.72-53.4-52.06-60.75c-1.03-1.2-2.97-0.72-3.36,0.82
			c-0.9,3.64-1.11,17.17-1.02,31.04l-0.02,0.02l0.03,0.89c0,0.63,0.01,1.26,0.01,1.88c0.01,0.01,0.03,0.03,0.04,0.04
			c0,0,5.47,109.05,7.65,108.14c1.18-0.5,1.98-1.62,2.06-2.9l5.47-89.11c19.24,22.35,38.14,45.21,56.76,68.52
			c13.34,18.13,26.28,35.36,31.81,41.58c1.76,1.97,3.48,3.98,5.23,5.97c46.05,60.51,90.23,123.92,132.61,190.1
			c5.21,10.28,10.16,20.69,14.77,31.27c47.46,111.35,11.19,208.18-52.07,300.32c-9.22,9.59-19.2,18.64-29.95,27.16
			c-37.62,29.85-80.05,50.41-125.9,64.19c-8.19,2.47-16.55,4.48-24.82,6.74c1.49,0.3,2.99,0.34,4.48,0.13
			c9.04-1.15,18.13-2.22,27.17-3.63c27.59-4.18,54.46-11,80.44-21.28c29.04-11.56,55.61-27.12,78.73-48.28
			c9.79-8.95,18.45-18.61,26.28-28.79c25.69-31.5,44.35-66.47,54.57-105.61l0,0c0-0.01,0.01-0.03,0.01-0.04
			c2.14-8.2,3.88-16.61,5.26-25.18C896.93,616.26,750.47,471.16,618.13,321.87z"/>
	</g>
</g>
</svg>
